<?xml version="1.0" standalone="no"?>
<!DOCTYPE svg PUBLIC "-//W3C//DTD SVG 20010904//EN"
 "http://www.w3.org/TR/2001/REC-SVG-20010904/DTD/svg10.dtd">
<svg version="1.0" xmlns="http://www.w3.org/2000/svg"
 width="8000.000000pt" height="8000.000000pt" viewBox="0 0 8000.000000 8000.000000"
 preserveAspectRatio="xMidYMid meet">

<g transform="translate(0.000000,8000.000000) scale(0.100000,-0.100000)"
fill="#000000" stroke="none">
<path d="M51070 64309 c-1029 -53 -2148 -331 -3350 -831 -742 -309 -1471 -662
-2700 -1308 -1268 -666 -1920 -981 -2595 -1250 -892 -356 -1687 -567 -2480
-657 -131 -15 -238 -18 -590 -17 -400 0 -447 2 -670 27 -772 88 -1658 319
-2650 692 -635 239 -1179 473 -2388 1029 -1476 678 -2054 924 -2803 1189
-1526 542 -2882 746 -4189 632 -596 -52 -1244 -196 -1796 -399 -1036 -379
-1951 -968 -2798 -1801 -894 -879 -1601 -1930 -2111 -3135 -466 -1102 -730
-2256 -817 -3580 -22 -330 -25 -1292 -5 -1610 71 -1132 234 -2170 527 -3351
172 -691 398 -1449 645 -2169 56 -161 99 -295 96 -297 -2 -3 -132 22 -288 56
-1173 249 -2340 439 -3383 550 -1448 155 -2913 181 -4220 76 -1956 -158 -3743
-597 -5330 -1308 -348 -155 -378 -172 -433 -232 -72 -78 -95 -145 -90 -255 7
-136 64 -228 180 -291 60 -32 68 -34 163 -34 l100 0 166 72 c984 425 2126 757
3274 953 689 118 1320 186 2120 230 317 18 1216 24 1590 11 1568 -54 3106
-258 4920 -651 604 -131 1674 -394 1695 -417 5 -4 64 -150 133 -323 175 -441
360 -892 807 -1965 723 -1734 982 -2380 1283 -3211 439 -1206 725 -2180 1025
-3484 507 -2201 769 -4160 847 -6345 43 -1205 50 -2191 35 -4680 -14 -2388 -8
-2890 45 -3645 112 -1585 434 -2870 995 -3980 584 -1152 1503 -2009 2591
-2413 301 -112 657 -193 1004 -228 157 -16 523 -16 650 0 739 92 1328 443
1815 1081 475 623 826 1460 1130 2695 212 858 366 1641 695 3520 355 2032 557
3001 835 4015 414 1508 987 2873 1583 3770 195 293 352 486 602 736 349 350
694 598 1141 822 1017 509 2174 613 3287 296 918 -261 1702 -795 2300 -1567
1046 -1349 1935 -3017 2657 -4982 454 -1236 867 -2760 1149 -4235 128 -673
191 -1056 281 -1710 76 -557 119 -835 175 -1115 181 -916 460 -1580 912 -2178
223 -294 529 -594 809 -795 226 -161 519 -317 762 -407 537 -198 1152 -228
1722 -85 740 186 1444 653 1964 1300 619 771 968 1727 1145 3135 75 595 266
2861 341 4035 78 1231 104 1998 104 3085 0 823 -7 1137 -40 1755 -136 2576
-600 4783 -1411 6708 -51 123 -95 227 -96 231 -4 13 746 634 1073 887 2748
2135 6026 3662 9527 4438 1457 323 2776 497 4378 578 339 17 1753 17 2095 0
570 -28 1099 -68 1561 -118 200 -21 253 -24 303 -15 137 24 257 114 318 238
32 65 33 73 33 188 0 110 -2 125 -28 179 -51 110 -133 187 -240 228 -156 59
-1434 196 -2272 243 -837 47 -1916 49 -2745 5 -4207 -223 -8274 -1460 -11808
-3594 -908 -548 -1735 -1126 -2616 -1829 l-219 -175 -107 161 c-379 574 -782
994 -1260 1312 -411 274 -786 424 -1244 497 -124 20 -177 23 -441 23 -342 0
-463 -14 -740 -85 -371 -94 -740 -275 -1020 -501 -409 -329 -680 -794 -771
-1324 -22 -127 -25 -479 -6 -610 69 -462 280 -928 580 -1285 498 -594 1193
-927 2018 -969 693 -36 1385 125 2099 488 94 47 173 87 176 89 10 4 148 -374
261 -712 446 -1338 728 -2830 848 -4486 164 -2266 44 -4858 -421 -9070 -79
-720 -172 -1185 -325 -1631 -166 -483 -364 -813 -661 -1100 -271 -261 -563
-426 -858 -485 -104 -20 -288 -20 -390 1 -485 100 -940 568 -1201 1236 -147
378 -233 799 -344 1689 -73 588 -82 650 -181 1255 -270 1655 -621 3128 -1101
4610 -495 1531 -1147 3015 -1896 4315 -495 861 -1078 1710 -1510 2203 -225
256 -544 561 -832 793 -792 639 -1781 1098 -2800 1299 -413 81 -741 115 -1185
122 -439 7 -750 -12 -1145 -73 -943 -145 -1844 -491 -2634 -1012 -756 -498
-1418 -1175 -1924 -1968 -861 -1348 -1532 -3048 -2036 -5159 -217 -909 -359
-1610 -686 -3400 -284 -1553 -419 -2246 -556 -2840 -287 -1251 -613 -2089
-938 -2418 -129 -131 -197 -154 -398 -136 -308 27 -639 148 -922 337 -641 428
-1113 1228 -1405 2381 -164 643 -256 1283 -312 2166 -19 305 -22 1521 -9 3620
15 2474 6 3402 -45 4640 -75 1783 -276 3471 -626 5243 -202 1026 -522 2346
-775 3197 -387 1307 -836 2494 -1879 4980 -153 363 -280 670 -282 682 -5 21
33 10 483 -141 1047 -352 1708 -586 3849 -1364 2666 -969 3780 -1355 5100
-1765 4654 -1449 8332 -1941 11690 -1566 1140 127 2172 344 3250 683 1657 521
3234 1337 4660 2411 1718 1293 3190 2950 4272 4810 350 600 691 1293 958 1939
559 1359 923 2841 1039 4226 54 642 54 1358 1 1980 -135 1556 -597 2973 -1360
4171 -1090 1713 -2764 2949 -4556 3363 -321 74 -657 125 -1004 151 -254 19
-699 26 -925 14z m705 -1979 c701 -45 1303 -207 1910 -515 504 -256 946 -579
1389 -1015 534 -526 932 -1078 1257 -1745 411 -842 644 -1733 736 -2815 22
-260 25 -1138 5 -1410 -126 -1688 -572 -3271 -1372 -4870 -845 -1690 -2057
-3237 -3521 -4495 -478 -410 -938 -757 -1473 -1110 -491 -324 -909 -565 -1456
-839 -949 -475 -1828 -797 -2885 -1056 -1188 -292 -2230 -434 -3540 -481 -352
-13 -1256 -7 -1590 11 -2415 125 -4895 590 -7952 1490 -1176 346 -2358 729
-4488 1452 -2242 761 -2891 978 -3804 1268 -652 207 -1398 434 -1893 575 l-57
16 -82 207 c-1029 2612 -1536 4658 -1630 6577 -15 310 -7 1038 15 1315 53 670
149 1241 302 1788 448 1606 1378 3020 2595 3941 807 612 1647 944 2634 1042
300 30 774 30 1075 0 752 -75 1468 -250 2405 -586 706 -254 1239 -479 2743
-1159 1510 -682 2280 -989 3182 -1266 2169 -666 3961 -663 5984 11 954 318
1878 739 3441 1567 2116 1121 2816 1450 3705 1740 655 214 1196 320 1860 365
110 8 359 6 505 -3z m-1168 -24556 c335 -49 627 -210 946 -523 154 -150 260
-274 385 -448 89 -125 242 -366 249 -394 4 -14 -26 -33 -147 -94 -329 -165
-607 -260 -925 -316 -171 -31 -546 -34 -690 -7 -305 58 -526 168 -710 353
-198 199 -317 439 -331 670 -18 290 152 528 475 665 226 96 501 131 748 94z"/>
</g>
</svg>
